<svg width="257" height="152" viewBox="0 0 257 152" fill="none" xmlns="http://www.w3.org/2000/svg">
<g filter="url(#filter0_d_230_967)">
<path d="M71.6658 9.8645L82.9171 18.3101L127.001 133.135L115.914 126.37C103.61 118.863 95.2546 106.3 93.0879 92.051V92.051L71.6658 9.8645Z" fill="white"/>
<path d="M60.3513 13.57C62.2919 8.74045 66.9738 5.57593 72.1787 5.57593V5.57593C81.0903 5.57593 87.2512 14.4872 84.1036 22.8245L66.8849 68.4323L38.0521 136.391H11L60.3513 13.57Z" fill="white"/>
<path d="M47.8123 44.7672C47.8123 44.7672 20.4551 69.9074 31.4091 72.8805C52.8916 83.224 101.374 60.0273 114.9 57.6403C128.426 55.2533 115.443 82.7716 115.443 82.7716L75.9 96.8028C75.9 96.8028 -2.39571 125.604 16.2394 66.3927C23.2261 44.1932 43.5052 36.1788 51.8181 34.6135L47.8123 44.7672Z" fill="white"/>
<path d="M106.485 85.8984L84.9828 49.3066L101.565 60.3263L109.88 58.7374L146.095 48.9293L116.872 28.9358L131.584 24.4089L181.932 39.1212L219.656 28.9359C223.68 27.8042 227.326 28.5586 230.596 31.1993C233.865 33.8399 235.5 37.3608 235.5 41.7619C235.5 44.5282 234.651 46.9803 232.953 49.1179C231.256 51.2556 229.087 52.7017 226.446 53.4561L106.485 85.8984Z" fill="white"/>
<path d="M136.031 114.172C134.12 114.698 132.249 114.748 130.418 114.322C128.633 113.884 127.496 112.777 127.007 111.003C126.368 108.682 127.455 106.229 130.267 103.643C133.08 101.057 136.238 99.2811 139.742 98.3161C141.926 97.7145 143.814 97.6353 145.405 98.0784C146.983 98.476 147.968 99.4774 148.362 101.083C148.788 102.63 147.993 104.366 145.978 106.292C143.995 108.16 142.617 109.2 141.844 109.413C141.07 109.626 140.64 109.574 140.552 109.255C140.464 108.936 140.538 108.671 140.773 108.46C141.042 108.19 141.614 107.69 142.49 106.959C143.365 106.228 143.993 105.664 144.373 105.265C144.74 104.821 144.899 104.508 144.849 104.326C144.799 104.144 144.569 104.11 144.159 104.223C142.658 104.636 140.442 105.834 137.512 107.816C134.615 109.74 133.26 111.043 133.448 111.725C133.561 112.135 134.528 112.089 136.348 111.588C140.853 110.347 143.6 111.524 144.59 115.119C145.029 116.712 144.474 118.431 142.927 120.277C141.366 122.077 139.66 123.526 137.808 124.624C135.957 125.721 134.416 126.439 133.188 126.778C132.005 127.104 130.535 126.921 128.778 126.23C127.021 125.539 125.992 124.647 125.691 123.555C125.39 122.463 126.604 121.272 129.333 119.982C130.557 119.449 132.128 118.576 134.046 117.362C135.951 116.103 136.822 115.178 136.659 114.586C136.559 114.222 136.35 114.084 136.031 114.172Z" fill="white"/>
<path d="M167.686 113.311C167.748 113.539 167.952 113.654 168.295 113.657C168.614 113.57 169.53 112.632 171.045 110.844C172.593 108.998 173.462 107.975 173.652 107.776C173.887 107.564 174.118 107.427 174.346 107.365C174.983 107.189 175.389 107.42 175.565 108.057C175.728 108.649 174.482 110.436 171.828 113.419C169.219 116.389 167.255 118.056 165.935 118.42C165.389 118.57 164.735 118.505 163.972 118.226C163.255 117.934 162.816 117.492 162.653 116.9C162.477 116.263 162.448 115.537 162.567 114.721C162.685 113.905 162.712 113.384 162.65 113.156C162.574 112.883 162.468 112.765 162.332 112.803C162.195 112.841 162.071 112.924 161.96 113.052C158.461 117.59 155.665 120.147 153.572 120.723C152.389 121.049 151.337 120.874 150.416 120.197C149.495 119.52 148.848 118.769 148.473 117.942L147.979 116.682C147.566 115.181 147.658 113.295 148.257 111.025C148.889 108.697 149.893 106.389 151.27 104.1C152.68 101.754 154.581 99.59 156.973 97.6095C159.41 95.6164 162.062 94.2251 164.929 93.4355C166.476 93.0094 168.022 93.0242 169.567 93.4798C171.158 93.9229 172.104 94.6906 172.405 95.7827C172.705 96.8748 171.818 97.8291 169.742 98.6456C168.249 99.4483 165.973 101.495 162.914 104.785C159.888 108.017 158.538 110.225 158.864 111.408C159.002 111.909 159.321 112.09 159.821 111.952C160.731 111.702 162.513 109.816 165.166 106.295C167.864 102.761 169.555 100.9 170.237 100.712C170.92 100.524 171.374 100.84 171.6 101.659C171.763 102.25 171.692 102.882 171.387 103.553C171.115 104.166 170.92 104.612 170.8 104.89C170.562 105.445 169.911 106.726 168.848 108.732C167.772 110.693 167.385 112.219 167.686 113.311Z" fill="white"/>
<path d="M187.801 95.0672C185.6 100.765 184.738 104.478 185.214 106.207C185.377 106.799 185.755 107.013 186.346 106.85C187.939 106.411 190.614 104.304 194.372 100.527C198.129 96.7511 200.167 94.819 200.486 94.7313C201.123 94.5558 201.517 94.7411 201.667 95.2872L201.704 95.4237C201.734 95.7093 200.736 97.0613 198.709 99.4797C196.683 101.898 194.048 104.509 190.806 107.311C187.563 110.113 184.69 111.859 182.188 112.548C178.229 113.639 175.616 111.886 174.351 107.29C173.21 103.149 174.101 97.7632 177.024 91.1325C179.979 84.4438 183.911 78.3674 188.82 72.9033C193.728 67.4392 198.275 64.1307 202.462 62.9777C204.282 62.4764 205.746 62.6363 206.853 63.4573C207.96 64.2783 208.639 65.1439 208.89 66.0539C209.391 67.8741 208.836 70.3034 207.225 73.3417C205.66 76.3675 203.641 79.3469 201.169 82.2797C198.684 85.1671 196.182 87.8144 193.663 90.2217C191.177 92.5709 189.223 94.1861 187.801 95.0672ZM203.693 68.5134C202.965 68.7139 201.538 70.3795 199.414 73.5102C197.336 76.6284 195.446 79.7192 193.744 82.7826L191.172 87.3095C190.908 87.7738 190.807 88.1197 190.87 88.3472C190.92 88.5292 191.15 88.5638 191.56 88.451C193.38 87.9497 196.015 84.8985 199.466 79.2973C202.917 73.6961 204.442 70.1674 204.041 68.7112C203.991 68.5292 203.875 68.4633 203.693 68.5134Z" fill="white"/>
<path d="M210.44 90.2274L213.69 88.965C215.238 88.5389 216.224 89.0994 216.65 90.6465C216.876 91.4656 216.376 92.5825 215.15 93.9972C213.924 95.4118 212.656 96.7645 211.347 98.0552C210.071 99.2878 209.496 100.132 209.621 100.587C209.709 100.905 210.129 101.01 210.883 100.9C212.475 100.462 215.15 98.3541 218.908 94.5777C222.666 90.8013 224.704 88.8692 225.022 88.7814C225.659 88.606 226.066 88.8368 226.241 89.4739C226.321 89.9414 225.178 91.4801 222.812 94.0898C220.48 96.6415 217.634 99.2855 214.276 102.022C210.95 104.7 208.286 106.315 206.284 106.867C203.144 107.731 201.117 106.503 200.202 103.181C199.939 102.225 200.288 101.003 201.248 99.5147C202.255 98.0137 203.282 96.6782 204.331 95.5082C205.425 94.3257 205.947 93.6434 205.897 93.4614C205.834 93.2339 205.446 93.0713 204.734 92.9738C202.597 92.681 201.341 91.8521 200.965 90.487C200.263 87.9387 201.715 84.9443 205.32 81.5035C208.958 78.0048 212.598 75.7541 216.238 74.7515C218.24 74.2001 220.008 74.1294 221.54 74.5396C223.061 74.9042 224.034 75.8601 224.46 77.4072C224.873 78.9089 224.193 80.614 222.417 82.5227C220.687 84.4188 219.368 85.4922 218.457 85.7428C218.093 85.8431 217.727 85.8461 217.358 85.7518C217.035 85.6449 216.842 85.4778 216.78 85.2503C216.717 85.0227 217.231 84.4895 218.322 83.6506C219.446 82.7536 219.945 82.0776 219.819 81.6226C219.757 81.3951 219.384 81.3753 218.702 81.5633C218.065 81.7387 216.126 83.0558 212.887 85.5146C209.635 87.9278 208.091 89.4302 208.254 90.0217C208.392 90.5223 209.12 90.5908 210.44 90.2274Z" fill="white"/>
<path d="M234.217 87.1304C232.305 87.6568 230.434 87.707 228.604 87.281C226.818 86.8426 225.681 85.736 225.193 83.9613C224.553 81.6406 225.64 79.1873 228.453 76.6013C231.265 74.0153 234.424 72.2398 237.927 71.2748C240.112 70.6732 241.999 70.594 243.59 71.0371C245.168 71.4347 246.154 72.4361 246.547 74.0413C246.973 75.5884 246.178 77.3249 244.163 79.2507C242.181 81.1185 240.803 82.1589 240.029 82.3719C239.256 82.585 238.825 82.5323 238.737 82.2137C238.649 81.8952 238.723 81.6301 238.959 81.4184C239.227 81.1486 239.799 80.6484 240.675 79.9176C241.551 79.1869 242.179 78.6223 242.558 78.224C242.926 77.7801 243.084 77.4672 243.034 77.2852C242.984 77.1031 242.754 77.0685 242.345 77.1813C240.843 77.5949 238.627 78.7926 235.697 80.7745C232.8 82.6984 231.446 84.0016 231.634 84.6842C231.746 85.0937 232.713 85.0478 234.533 84.5465C239.038 83.3058 241.785 84.4829 242.775 88.0777C243.214 89.6704 242.66 91.3897 241.112 93.2357C239.552 95.0362 237.845 96.4851 235.994 97.5826C234.142 98.6801 232.602 99.398 231.373 99.7364C230.19 100.062 228.72 99.8796 226.963 99.1886C225.206 98.4975 224.177 97.6059 223.877 96.5138C223.576 95.4217 224.79 94.2306 227.519 92.9405C228.743 92.4076 230.314 91.5344 232.231 90.3208C234.137 89.0618 235.008 88.1364 234.845 87.5449C234.744 87.1809 234.535 87.0427 234.217 87.1304Z" fill="white"/>
</g>
<defs>
<filter id="filter0_d_230_967" x="0.795473" y="0.473664" width="256.067" height="151.224" filterUnits="userSpaceOnUse" color-interpolation-filters="sRGB">
<feFlood flood-opacity="0" result="BackgroundImageFix"/>
<feColorMatrix in="SourceAlpha" type="matrix" values="0 0 0 0 0 0 0 0 0 0 0 0 0 0 0 0 0 0 127 0" result="hardAlpha"/>
<feOffset dy="5.10226"/>
<feGaussianBlur stdDeviation="5.10226"/>
<feComposite in2="hardAlpha" operator="out"/>
<feColorMatrix type="matrix" values="0 0 0 0 0 0 0 0 0 0 0 0 0 0 0 0 0 0 0.5 0"/>
<feBlend mode="normal" in2="BackgroundImageFix" result="effect1_dropShadow_230_967"/>
<feBlend mode="normal" in="SourceGraphic" in2="effect1_dropShadow_230_967" result="shape"/>
</filter>
</defs>
</svg>
