<svg width="88" height="53" viewBox="0 0 88 53" fill="none" xmlns="http://www.w3.org/2000/svg">
<path d="M23.78 3.08881L28.1464 6.21337L44.9307 49.1256L40.4464 46.5294C35.7916 43.8345 32.6199 39.164 31.8317 33.8434L23.78 3.08881Z" fill="white"/>
<path d="M19.3449 4.54132C20.1055 2.64823 21.9408 1.4078 23.981 1.4078C27.4742 1.4078 29.8892 4.90085 28.6553 8.16893L21.9059 26.0464L10.604 52.685H0L19.3449 4.54132Z" fill="white"/>
<path d="M14.4298 16.7701C14.4298 16.7701 8.0521 24.7052 12.3459 25.8706C20.7667 29.9251 35.4251 22.7518 40.7271 21.8161C46.029 20.8805 40.9397 31.6672 40.9397 31.6672L25.4397 37.1672C25.4397 37.1672 -5.25089 48.4568 2.05376 25.2469C4.79243 16.5451 12.7415 13.4036 16 12.79L14.4298 16.7701Z" fill="white"/>
<path d="M37.4286 32.8928L29 18.5495L35.5 22.869L38.7594 22.2462L52.9549 18.4016L41.5 10.5645L47.2669 8.79003L67.0025 14.557L81.7895 10.5645C83.3668 10.1209 84.7962 10.4166 86.0777 11.4517C87.3592 12.4868 88 13.8669 88 15.5921C88 16.6765 87.6673 17.6376 87.0019 18.4755C86.3365 19.3135 85.4862 19.8803 84.4511 20.176L37.4286 32.8928Z" fill="white"/>
</svg>
