<svg width="88" height="52" viewBox="0 0 88 52" fill="none" xmlns="http://www.w3.org/2000/svg">
<path d="M23.78 2.29878L28.1464 5.42334L44.9307 48.3356L40.4464 45.7394C35.7916 43.0445 32.6199 38.3739 31.8317 33.0534L23.78 2.29878Z" fill="#18004A"/>
<path d="M19.3449 3.75129C20.1055 1.8582 21.9408 0.617767 23.981 0.617767C27.4742 0.617767 29.8892 4.11082 28.6553 7.3789L21.9059 25.2564L10.604 51.895H0L19.3449 3.75129Z" fill="#18004A"/>
<path d="M14.4298 15.9801C14.4298 15.9801 8.0521 23.9151 12.3459 25.0806C20.7667 29.1351 35.4251 21.9618 40.7271 21.0261C46.029 20.0905 40.9397 30.8771 40.9397 30.8771L25.4397 36.3771C25.4397 36.3771 -5.25089 47.6667 2.05376 24.4569C4.79243 15.7551 12.7415 12.6136 16 12L14.4298 15.9801Z" fill="#18004A"/>
<path d="M37.4286 32.1028L29 17.7594L35.5 22.079L38.7594 21.4562L52.9549 17.6116L41.5 9.77444L47.2669 8L67.0025 13.767L81.7895 9.77448C83.3668 9.33087 84.7962 9.62661 86.0777 10.6617C87.3592 11.6968 88 13.0769 88 14.802C88 15.8864 87.6673 16.8476 87.0019 17.6855C86.3365 18.5234 85.4862 19.0903 84.4511 19.386L37.4286 32.1028Z" fill="#18004A"/>
</svg>
